#!OML:ASF X:\für Bonn\!DataBase\2005_08_12_Daniel\c3d\Daniel.ASF
:FULLY-SPECIFIED
:DEGREES
1
root -0.0702178 17.1074 -1.07738 16.3574 -87.9352 -25.5273
lowerback 23.2021 -2.40149 3.41766
upperback 0.899688 -2.66603 -2.23104
thorax -12.3028 -1.56795 -3.57905
lowerneck 3.6644 1.86507 -1.85461
upperneck 5.72993 2.33061 0.209592
head 1.125 1.08518 0.365522
rclavicle -2.01269e-015 -3.97569e-015
rhumerus 59.973 3.26615 -99.5118
rradius 5.62391
rwrist 60.9211
rhand -18.1413 5.31713
rfingers 7.12502
rthumb 8.13399 -24.5063
lclavicle -2.01269e-015 -3.97569e-015
lhumerus 62.7253 10.7137 113.928
lradius 10.2417
lwrist -88.316
lhand -14.3316 1.35908
lfingers 7.12502
lthumb 11.8093 31.0061
rfemur 3.37614 7.1028 19.7184
rtibia 26.2322
rfoot -25.4427 -12.6178
rtoes -13.1558
lfemur -6.62598 -15.6973 -16.4861
ltibia 37.8208
lfoot -29.2207 13.9571
ltoes -0.468721
2
root -0.0722565 17.1018 -1.07941 14.4342 -87.9766 -23.7003
lowerback 23.0965 -2.37484 3.32436
upperback 0.970542 -2.66584 -2.27056
thorax -12.1601 -1.56177 -3.572
lowerneck 3.80468 1.85269 -1.71087
upperneck 5.59819 2.32021 0.0701498
head 1.06373 1.08271 0.296554
rclavicle 3.13334e-014 1.03368e-014
rhumerus 59.9417 3.21851 -99.6272
rradius 5.75573
rwrist 60.8286
rhand -18.1 5.3549
rfingers 7.12502
rthumb 8.17383 -24.467
lclavicle 3.13334e-014 1.03368e-014
lhumerus 62.8862 10.8808 114.347
lradius 10.144
lwrist -88.8419
lhand -14.2673 1.3504
lfingers 7.12502
lthumb 11.8714 30.9939
rfemur 3.70811 7.13132 19.689
rtibia 25.8729
rfoot -25.556 -12.7522
rtoes -13.0418
lfemur -6.48859 -15.8455 -16.6543
ltibia 37.811
lfoot -29.3091 14.2821
ltoes -0.776843
3
root -0.0728453 17.0948 -1.08236 12.7736 -88.0135 -22.1663
lowerback 23.0392 -2.34448 3.23369
upperback 1.06462 -2.65837 -2.30107
thorax -12.0167 -1.55218 -3.55781
lowerneck 3.93832 1.83239 -1.64214
upperneck 5.44125 2.29513 0.0126517
head 0.994409 1.0728 0.265101
rclavicle -3.32716e-014 -3.10104e-014
rhumerus 59.8786 3.14634 -99.7165
rradius 5.96887
rwrist 60.7681
rhand -18.0762 5.33602
rfingers 7.12502
rthumb 8.19675 -24.485
lclavicle -3.32716e-014 -3.10104e-014
lhumerus 63.0224 10.9771 114.627
lradius 10.0414
lwrist -89.1967
lhand -14.1865 1.32233
lfingers 7.12502
lthumb 11.9492 30.9613
rfemur 3.98053 7.02897 19.631
rtibia 25.6472
rfoot -25.6257 -12.728
rtoes -12.8851
lfemur -6.36296 -15.8817 -16.7734
ltibia 37.8586
lfoot -29.4044 14.4103
ltoes -0.940953
4
root -0.0708962 17.0843 -1.08474 10.5699 -88.0478 -20.0992
lowerback 23.0265 -2.3118 3.14595
upperback 1.16553 -2.64752 -2.34041
thorax -11.8906 -1.54206 -3.5556
lowerneck 4.07975 1.81236 -1.57316
upperneck 5.26821 2.27032 -0.0370413
head 0.918994 1.06334 0.235945
rclavicle 5.61567e-015 1.11319e-014
rhumerus 59.8878 3.06091 -99.7977
rradius 6.10746
rwrist 60.7082
rhand -18.0785 5.32855
rfingers 7.12502
rthumb 8.19457 -24.4925
lclavicle 5.61567e-015 1.11319e-014
lhumerus 62.9953 10.7714 114.291
lradius 9.98376
lwrist -88.8206
lhand -14.0914 1.40188
lfingers 7.12502
lthumb 12.041 31.0355
rfemur 4.15566 6.6935 19.4694
rtibia 25.5525
rfoot -25.5673 -12.4711
rtoes -12.7144
lfemur -6.31198 -15.6748 -16.8459
ltibia 37.9875
lfoot -29.3723 14.3576
ltoes -1.2137
5
root -0.0666692 17.0698 -1.08739 8.86432 -88.078 -18.5384
lowerback 23.0575 -2.28205 3.04812
upperback 1.2583 -2.6393 -2.35875
thorax -11.7969 -1.53243 -3.52212
lowerneck 4.26172 1.80614 -1.54353
upperneck 5.0928 2.25977 -0.0350257
head 0.835442 1.06046 0.228541
rclavicle -4.29872e-015 -1.11319e-014
rhumerus 59.9387 3.0029 -99.8694
rradius 6.16928
rwrist 60.583
rhand -18.1327 5.29076
rfingers 7.12502
rthumb 8.14229 -24.5324
lclavicle -4.29872e-015 -1.11319e-014
lhumerus 62.9987 10.5784 113.973
lradius 9.87904
lwrist -88.4314
lhand -14.0254 1.51489
lfingers 7.12502
lthumb 12.1046 31.1447
rfemur 4.23162 6.20596 19.27
rtibia 25.5962
rfoot -25.462 -12.0237
rtoes -12.5153
lfemur -6.32239 -15.2666 -16.8284
ltibia 38.1781
lfoot -29.321 14.0424
ltoes -1.34669
6
root -0.0603969 17.0536 -1.08997 7.51977 -88.1119 -17.3329
lowerback 23.1056 -2.24667 2.97354
upperback 1.3598 -2.6178 -2.37811
thorax -11.7026 -1.51815 -3.50733
lowerneck 4.44556 1.80942 -1.54466
upperneck 4.90801 2.25962 0.0187613
head 0.74812 1.06267 0.241756
rclavicle 1.65737e-014 -8.74653e-015
rhumerus 59.9924 2.91292 -99.9263
rradius 6.20533
rwrist 60.4551
rhand -18.2503 5.2408
rfingers 7.12502
rthumb 8.02876 -24.5867
lclavicle 1.65737e-014 -8.74653e-015
lhumerus 63.0428 10.3568 113.661
lradius 9.73653
lwrist -88.0006
lhand -14.0554 1.62577
lfingers 7.12502
lthumb 12.0757 31.2573
rfemur 4.21475 5.62996 19.0476
rtibia 25.7555
rfoot -25.317 -11.5279
rtoes -12.363
lfemur -6.39303 -14.7042 -16.751
ltibia 38.416
lfoot -29.1697 13.6032
ltoes -1.46004
7
root -0.05328 17.0378 -1.09283 6.64734 -88.1329 -16.6386
lowerback 23.2008 -2.21487 2.90166
upperback 1.47085 -2.59748 -2.37793
thorax -11.6226 -1.50423 -3.47085
lowerneck 4.71381 1.81976 -1.64937
upperneck 4.65148 2.26098 0.165615
head 0.623533 1.06483 0.29864
rclavicle 1.55797e-014 -7.15625e-015
rhumerus 59.9235 2.8419 -99.973
rradius 6.33505
rwrist 60.2765
rhand -18.319 5.2192
rfingers 7.12502
rthumb 7.96246 -24.6108
lclavicle 1.55797e-014 -7.15625e-015
lhumerus 63.0824 10.1518 113.367
lradius 9.61594
lwrist -87.5654
lhand -14.043 1.69197
lfingers 7.12502
lthumb 12.0877 31.3228
rfemur 4.17261 4.95799 18.8195
rtibia 26.0089
rfoot -25.1614 -10.9548
rtoes -12.3963
lfemur -6.43759 -13.9924 -16.6176
ltibia 38.6678
lfoot -29.0104 13.0038
ltoes -1.51812
8
root -0.0456771 17.0241 -1.0962 6.31536 -88.1722 -16.4972
lowerback 23.3206 -2.17436 2.86178
upperback 1.5927 -2.56041 -2.39837
thorax -11.5447 -1.48529 -3.48129
lowerneck 4.92944 1.83284 -1.69507
upperneck 4.4768 2.26869 0.329315
head 0.533161 1.06994 0.35226
rclavicle -9.7156e-015 -7.95139e-015
rhumerus 59.8464 2.70384 -100.03
rradius 6.43537
rwrist 60.124
rhand -18.4692 5.22827
rfingers 7.12502
rthumb 7.81749 -24.6072
lclavicle -9.7156e-015 -7.95139e-015
lhumerus 63.0814 9.92559 113.032
lradius 9.49158
lwrist -87.1204
lhand -14.1686 1.78584
lfingers 7.12502
lthumb 11.9665 31.4238
rfemur 4.10263 4.32848 18.6121
rtibia 26.3396
rfoot -25.0343 -10.3666
rtoes -12.3062
lfemur -6.46897 -13.1204 -16.428
ltibia 38.914
lfoot -28.815 12.2748
ltoes -1.55794
9
root -0.0368452 17.0134 -1.09917 6.36958 -88.1881 -16.7312
lowerback 23.4215 -2.13999 2.84082
upperback 1.74408 -2.52542 -2.3999
thorax -11.4228 -1.46708 -3.48095
lowerneck 5.10536 1.84749 -1.83864
upperneck 4.25235 2.27554 0.551309
head 0.432352 1.07392 0.440021
rclavicle 2.97183e-014 9.54166e-015
rhumerus 59.8187 2.60737 -100.07
rradius 6.50806
rwrist 59.9757
rhand -18.5918 5.2848
rfingers 7.12502
rthumb 7.69916 -24.555
lclavicle 2.97183e-014 9.54166e-015
lhumerus 63.0444 9.72458 112.715
lradius 9.44018
lwrist -86.6391
lhand -14.3081 1.7276
lfingers 7.12502
lthumb 11.832 31.3733
rfemur 3.96597 3.64827 18.4036
rtibia 26.7478
rfoot -24.8951 -9.77795
rtoes -12.4274
lfemur -6.52173 -12.2471 -16.2112
ltibia 39.1721
lfoot -28.6498 11.5444
ltoes -1.47441
10
root -0.0259822 17.0007 -1.10152 7.00652 -88.2081 -17.5708
lowerback 23.535 -2.10632 2.83436
upperback 1.93464 -2.48934 -2.40258
thorax -11.2637 -1.44893 -3.49044
lowerneck 5.25315 1.85463 -1.91671
upperneck 4.02451 2.27799 0.715184
head 0.336331 1.07644 0.500062
rclavicle -3.97569e-016 1.74931e-014
rhumerus 59.8088 2.50232 -100.112
rradius 6.59201
rwrist 59.8556
rhand -18.7193 5.37587
rfingers 7.12502
rthumb 7.57612 -24.4684
lclavicle -3.97569e-016 1.74931e-014
lhumerus 63.016 9.53488 112.376
lradius 9.43681
lwrist -86.1814
lhand -14.5395 1.64625
lfingers 7.12502
lthumb 11.6089 31.3047
rfemur 3.80324 2.9521 18.2031
rtibia 27.2353
rfoot -24.8082 -9.16491
rtoes -12.7183
lfemur -6.57825 -11.2253 -15.9381
ltibia 39.4611
lfoot -28.4665 10.693
ltoes -1.38207
